<svg width="252" height="50" viewBox="0 0 252 50" fill="none" xmlns="http://www.w3.org/2000/svg">
  <g transform="translate(2,9)">
    <path d="M16.5 30.5 C 7.5 22.6 1 17 1 9.9 C 1 5 5 1 9.9 1 C 12.7 1 15.2 2.4 16.5 4.7 C 17.8 2.4 20.3 1 23.1 1 C 28 1 32 5 32 9.9 C 32 17 25.5 22.6 16.5 30.5 Z" fill="#DB479D"/>
    <path d="M16.5 30.5 C 7.5 22.6 1 17 1 9.9 C 1 5 5 1 9.9 1 C 12.7 1 15.2 2.4 16.5 4.7 C 17.8 2.4 20.3 1 23.1 1 C 28 1 32 5 32 9.9 C 32 17 25.5 22.6 16.5 30.5 Z" stroke="#FFFFFF" stroke-width="1.6" stroke-linejoin="round"/>
  </g>
  <text x="44" y="26" font-family="Montserrat, Arial, sans-serif" font-size="20" font-weight="700" fill="#FFFFFF">The Melissa</text>
  <text x="45" y="44" font-family="Montserrat, Arial, sans-serif" font-size="10.5" font-weight="600" letter-spacing="4.2" fill="#DB479D">FOUNDATION</text>
</svg>
